<svg width="295" height="222" viewBox="0 0 295 222" fill="none" xmlns="http://www.w3.org/2000/svg">
<circle cx="282" cy="132" r="13" fill="#EC473D"/>
<path d="M10.3243 7.828C10.3243 8.58 10.0403 9.152 9.47227 9.544C8.91227 9.936 8.22827 10.132 7.42027 10.132C6.62027 10.132 5.96027 10.036 5.44027 9.844C4.92827 9.652 4.67227 9.44 4.67227 9.208V7.804C4.67227 7.636 4.73627 7.552 4.86427 7.552C4.96827 7.552 5.04027 7.628 5.08027 7.78C5.28827 8.396 5.55627 8.856 5.88427 9.16C6.22027 9.456 6.68827 9.604 7.28827 9.604C7.88827 9.604 8.37227 9.468 8.74027 9.196C9.11627 8.924 9.30427 8.548 9.30427 8.068C9.30427 7.54 9.00827 7.096 8.41627 6.736C8.15227 6.576 7.86027 6.42 7.54027 6.268C7.22027 6.116 6.90027 5.96 6.58027 5.8C6.26027 5.632 5.96827 5.452 5.70427 5.26C5.11227 4.828 4.81627 4.284 4.81627 3.628C4.81627 2.964 5.06827 2.44 5.57227 2.056C6.08427 1.664 6.68427 1.468 7.37227 1.468C8.06027 1.468 8.64427 1.556 9.12427 1.732C9.60427 1.9 9.84427 2.088 9.84427 2.296V3.508C9.84427 3.668 9.78427 3.748 9.66427 3.748C9.55227 3.748 9.46827 3.668 9.41227 3.508C9.24427 2.996 9.02427 2.616 8.75227 2.368C8.48027 2.12 8.07227 1.996 7.52827 1.996C6.99227 1.996 6.56827 2.124 6.25627 2.38C5.94427 2.636 5.78827 2.956 5.78827 3.34C5.78827 3.716 5.94427 4.044 6.25627 4.324C6.56827 4.596 6.94427 4.84 7.38427 5.056C7.83227 5.264 8.27627 5.484 8.71627 5.716C9.16427 5.94 9.54427 6.232 9.85627 6.592C10.1683 6.952 10.3243 7.364 10.3243 7.828Z" fill="#EC473D"/>
<path d="M6.57197 135.868C6.57197 135.916 6.55197 135.96 6.51197 136C6.47997 136.032 6.44397 136.048 6.40397 136.048L4.74797 136L2.99597 136.048C2.87597 136.048 2.81597 135.992 2.81597 135.88C2.81597 135.76 2.86797 135.7 2.97197 135.7L3.60797 135.676C3.76797 135.66 3.91197 135.612 4.03997 135.532C4.16797 135.452 4.23197 135.336 4.23197 135.184V128.524C4.23197 128.212 4.06797 128.056 3.73997 128.056C3.72397 128.056 3.70797 128.056 3.69197 128.056L2.89997 128.092C2.81197 128.092 2.76797 128.04 2.76797 127.936C2.76797 127.832 2.82397 127.772 2.93597 127.756L5.07197 127.468C5.19197 127.468 5.25197 127.512 5.25197 127.6V135.184C5.25197 135.48 5.43197 135.644 5.79197 135.676L6.42797 135.7C6.52397 135.7 6.57197 135.756 6.57197 135.868ZM9.84788 131.428C10.4799 131.476 11.0159 131.688 11.4559 132.064C11.8959 132.44 12.1159 132.896 12.1159 133.432C12.1159 133.96 11.9879 134.408 11.7319 134.776C11.4759 135.136 11.1399 135.416 10.7239 135.616C9.88388 136.032 8.97988 136.24 8.01188 136.24C7.80388 136.24 7.69988 136.156 7.69988 135.988C7.69988 135.932 7.72788 135.88 7.78388 135.832C7.83988 135.776 7.91588 135.744 8.01188 135.736C8.88388 135.664 9.59188 135.452 10.1359 135.1C10.6879 134.748 10.9639 134.236 10.9639 133.564C10.9639 133.052 10.7799 132.652 10.4119 132.364C10.0519 132.076 9.54388 131.928 8.88788 131.92C8.63988 131.92 8.51588 131.848 8.51588 131.704C8.51588 131.624 8.55988 131.556 8.64788 131.5C9.42388 131.052 9.96388 130.64 10.2679 130.264C10.5799 129.88 10.7359 129.504 10.7359 129.136C10.7359 128.76 10.6319 128.468 10.4239 128.26C10.2159 128.044 9.95588 127.936 9.64388 127.936C9.33988 127.936 9.09188 127.996 8.89988 128.116C8.70788 128.236 8.56788 128.36 8.47988 128.488C8.39988 128.608 8.29988 128.796 8.17988 129.052C8.06788 129.308 7.95588 129.436 7.84388 129.436C7.78788 129.436 7.73988 129.412 7.69988 129.364C7.66788 129.316 7.65188 129.272 7.65188 129.232V128.284C7.65188 128.108 7.84388 127.928 8.22788 127.744C8.61988 127.56 9.10788 127.468 9.69188 127.468C10.2839 127.468 10.7919 127.604 11.2159 127.876C11.6479 128.148 11.8639 128.552 11.8639 129.088C11.8639 129.592 11.6279 130.056 11.1559 130.48C10.8119 130.792 10.3759 131.108 9.84788 131.428Z" fill="#EC473D"/>
<path d="M10.2444 91.552C10.2444 92.248 9.99244 92.852 9.48844 93.364C8.99244 93.876 8.33644 94.132 7.52044 94.132C6.71244 94.132 6.06844 93.864 5.58844 93.328C5.10844 92.784 4.86844 92.016 4.86844 91.024C4.86844 90.024 5.22044 88.988 5.92444 87.916C6.62844 86.836 7.57244 86.02 8.75644 85.468C8.76444 85.46 8.80044 85.456 8.86444 85.456C8.92844 85.456 8.99244 85.476 9.05644 85.516C9.12844 85.548 9.16444 85.616 9.16444 85.72C9.16444 85.816 9.10444 85.9 8.98444 85.972C7.48044 86.876 6.52444 88.092 6.11644 89.62C6.54044 89.236 7.07244 89.044 7.71244 89.044C8.52844 89.044 9.15644 89.288 9.59644 89.776C10.0364 90.264 10.2524 90.856 10.2444 91.552ZM6.38044 93.064C6.67644 93.44 7.06844 93.628 7.55644 93.628C8.04444 93.628 8.43244 93.44 8.72044 93.064C9.01644 92.68 9.16444 92.184 9.16444 91.576C9.16444 90.96 9.01644 90.484 8.72044 90.148C8.42444 89.804 8.03644 89.632 7.55644 89.632C7.07644 89.632 6.68844 89.804 6.39244 90.148C6.09644 90.484 5.94844 90.96 5.94844 91.576C5.94844 92.184 6.09244 92.68 6.38044 93.064Z" fill="#EC473D"/>
<path d="M5.27997 178H0.791969C0.695969 178 0.647969 177.956 0.647969 177.868V177.76C0.647969 177.688 0.667969 177.62 0.707969 177.556C1.06797 176.996 1.50797 176.356 2.02797 175.636C2.54797 174.908 2.93997 174.356 3.20397 173.98C3.46797 173.596 3.70397 173.176 3.91197 172.72C4.11997 172.256 4.22397 171.812 4.22397 171.388C4.22397 170.956 4.09997 170.608 3.85197 170.344C3.61197 170.072 3.27997 169.936 2.85597 169.936C2.43997 169.936 2.11197 170.068 1.87197 170.332C1.63997 170.596 1.47197 170.9 1.36797 171.244C1.32797 171.388 1.24397 171.46 1.11597 171.46C1.05997 171.46 1.01197 171.44 0.971969 171.4C0.931969 171.352 0.911969 171.3 0.911969 171.244V170.296C0.911969 170.12 1.11997 169.94 1.53597 169.756C1.95197 169.564 2.42397 169.468 2.95197 169.468C3.68797 169.468 4.26797 169.66 4.69197 170.044C5.12397 170.428 5.33997 170.924 5.33997 171.532C5.33997 171.916 5.24397 172.312 5.05197 172.72C4.85997 173.12 4.63597 173.476 4.37997 173.788C4.13197 174.1 3.73997 174.58 3.20397 175.228C2.66797 175.868 2.20397 176.452 1.81197 176.98H4.77597C5.04797 176.98 5.21597 176.92 5.27997 176.8C5.35197 176.672 5.42797 176.608 5.50797 176.608C5.62797 176.608 5.67997 176.684 5.66397 176.836L5.60397 177.616C5.59597 177.736 5.55997 177.832 5.49597 177.904C5.43197 177.968 5.35997 178 5.27997 178ZM10.1106 169.984C8.78263 169.984 8.11863 171.256 8.11863 173.8C8.11863 176.344 8.78263 177.616 10.1106 177.616C11.4386 177.616 12.1026 176.344 12.1026 173.8C12.1026 171.256 11.4386 169.984 10.1106 169.984ZM7.79463 176.932C7.25863 176.124 6.99063 175.08 6.99063 173.8C6.99063 172.52 7.25863 171.48 7.79463 170.68C8.33863 169.872 9.11063 169.468 10.1106 169.468C11.1106 169.468 11.8786 169.872 12.4146 170.68C12.9586 171.48 13.2306 172.52 13.2306 173.8C13.2306 175.08 12.9586 176.124 12.4146 176.932C11.8786 177.732 11.1106 178.132 10.1106 178.132C9.11063 178.132 8.33863 177.732 7.79463 176.932Z" fill="#EC473D"/>
<path d="M6.31708 220H1.82908C1.73308 220 1.68508 219.956 1.68508 219.868V219.76C1.68508 219.688 1.70508 219.62 1.74508 219.556C2.10508 218.996 2.54508 218.356 3.06508 217.636C3.58508 216.908 3.97708 216.356 4.24108 215.98C4.50508 215.596 4.74108 215.176 4.94908 214.72C5.15708 214.256 5.26108 213.812 5.26108 213.388C5.26108 212.956 5.13708 212.608 4.88908 212.344C4.64908 212.072 4.31708 211.936 3.89308 211.936C3.47708 211.936 3.14908 212.068 2.90908 212.332C2.67708 212.596 2.50908 212.9 2.40508 213.244C2.36508 213.388 2.28108 213.46 2.15308 213.46C2.09708 213.46 2.04908 213.44 2.00908 213.4C1.96908 213.352 1.94908 213.3 1.94908 213.244V212.296C1.94908 212.12 2.15708 211.94 2.57308 211.756C2.98908 211.564 3.46108 211.468 3.98908 211.468C4.72508 211.468 5.30508 211.66 5.72908 212.044C6.16108 212.428 6.37708 212.924 6.37708 213.532C6.37708 213.916 6.28108 214.312 6.08908 214.72C5.89708 215.12 5.67308 215.476 5.41708 215.788C5.16908 216.1 4.77708 216.58 4.24108 217.228C3.70508 217.868 3.24108 218.452 2.84908 218.98H5.81308C6.08508 218.98 6.25308 218.92 6.31708 218.8C6.38908 218.672 6.46508 218.608 6.54508 218.608C6.66508 218.608 6.71708 218.684 6.70108 218.836L6.64108 219.616C6.63308 219.736 6.59708 219.832 6.53308 219.904C6.46908 219.968 6.39708 220 6.31708 220ZM12.2997 211.6C12.3877 211.6 12.4317 211.64 12.4317 211.72C12.4317 211.744 12.4277 211.764 12.4197 211.78C11.2117 215.332 10.3797 218.024 9.92373 219.856C9.90773 219.952 9.85173 220 9.75573 220H8.98773C8.94773 220 8.91173 219.984 8.87973 219.952C8.85573 219.92 8.85173 219.884 8.86773 219.844C9.19573 218.764 10.0997 216.356 11.5797 212.62H8.55573C8.28373 212.62 8.11573 212.684 8.05173 212.812C7.98773 212.932 7.90773 212.992 7.81173 212.992C7.71573 212.992 7.66773 212.928 7.66773 212.8C7.66773 212.784 7.68773 212.512 7.72773 211.984C7.73573 211.864 7.77173 211.772 7.83573 211.708C7.89973 211.636 7.97173 211.6 8.05173 211.6H12.2997Z" fill="#EC473D"/>
<path d="M58.4602 9.88C58.4602 9.928 58.4402 9.968 58.4002 10C58.3682 10.032 58.3322 10.048 58.2922 10.048L56.9362 10L55.7482 10.048C55.6362 10.048 55.5802 10 55.5802 9.904C55.5802 9.8 55.6242 9.74 55.7122 9.724L55.9162 9.7C56.2522 9.66 56.4202 9.496 56.4202 9.208L56.3242 3.532C56.3242 3.452 56.3002 3.412 56.2522 3.412C56.2282 3.412 56.2122 3.424 56.2042 3.448L52.9402 9.976C52.9002 10.048 52.8522 10.084 52.7962 10.084C52.7402 10.084 52.6962 10.048 52.6642 9.976L49.3882 3.64C49.3802 3.616 49.3642 3.604 49.3402 3.604C49.2922 3.604 49.2682 3.644 49.2682 3.724L49.1962 9.208C49.1962 9.472 49.3562 9.632 49.6762 9.688L49.8802 9.724C49.9842 9.74 50.0362 9.796 50.0362 9.892C50.0362 9.988 49.9762 10.036 49.8562 10.036L48.8722 10L47.7082 10.036C47.5962 10.036 47.5402 9.988 47.5402 9.892C47.5402 9.796 47.5842 9.74 47.6722 9.724L48.0202 9.688C48.3882 9.648 48.5722 9.488 48.5722 9.208L48.7162 2.392C48.7242 2.112 48.5642 1.952 48.2362 1.912L48.0202 1.888C47.9242 1.872 47.8762 1.816 47.8762 1.72C47.8762 1.616 47.9362 1.564 48.0562 1.564L49.1122 1.6C49.3842 1.608 49.5562 1.688 49.6282 1.84L53.0242 8.56L56.3362 1.84C56.4082 1.696 56.5842 1.616 56.8642 1.6L57.9322 1.564C58.0602 1.564 58.1242 1.616 58.1242 1.72C58.1242 1.816 58.0762 1.872 57.9802 1.888L57.7642 1.912C57.4522 1.936 57.2962 2.096 57.2962 2.392L57.4402 9.208C57.4402 9.352 57.4882 9.468 57.5842 9.556C57.6882 9.636 57.8162 9.684 57.9682 9.7L58.3162 9.724C58.4122 9.724 58.4602 9.776 58.4602 9.88Z" fill="black"/>
<path d="M51.6677 135.868C51.6677 135.916 51.6477 135.96 51.6077 136C51.5757 136.032 51.5397 136.048 51.4997 136.048L49.8437 136L48.0917 136.048C47.9717 136.048 47.9117 135.992 47.9117 135.88C47.9117 135.76 47.9637 135.7 48.0677 135.7L48.7037 135.676C48.8637 135.66 49.0077 135.612 49.1357 135.532C49.2637 135.452 49.3277 135.336 49.3277 135.184V128.524C49.3277 128.212 49.1637 128.056 48.8357 128.056C48.8197 128.056 48.8037 128.056 48.7877 128.056L47.9957 128.092C47.9077 128.092 47.8637 128.04 47.8637 127.936C47.8637 127.832 47.9197 127.772 48.0317 127.756L50.1677 127.468C50.2877 127.468 50.3477 127.512 50.3477 127.6V135.184C50.3477 135.48 50.5277 135.644 50.8877 135.676L51.5237 135.7C51.6197 135.7 51.6677 135.756 51.6677 135.868ZM58.3756 133.42C58.3756 133.588 58.3036 133.672 58.1596 133.672H57.2716V135.748C57.2716 135.916 57.1876 136 57.0196 136H56.5156C56.3476 136 56.2636 135.916 56.2636 135.748V133.672H52.5316C52.4356 133.672 52.3876 133.628 52.3876 133.54V133.384C52.3876 133.304 52.4076 133.236 52.4476 133.18L56.4556 127.648C56.5436 127.528 56.6476 127.468 56.7676 127.468H56.9956C57.0996 127.468 57.1716 127.492 57.2116 127.54C57.2516 127.58 57.2716 127.652 57.2716 127.756V132.976H58.1596C58.3036 132.976 58.3756 133.04 58.3756 133.168V133.42ZM56.2636 132.976V128.86L53.4796 132.784C53.4476 132.84 53.4316 132.888 53.4316 132.928C53.4316 132.96 53.4636 132.976 53.5276 132.976H56.2636Z" fill="black"/>
<path d="M55.1884 85.6C55.2764 85.6 55.3204 85.64 55.3204 85.72C55.3204 85.744 55.3164 85.764 55.3084 85.78C54.1004 89.332 53.2684 92.024 52.8124 93.856C52.7964 93.952 52.7404 94 52.6444 94H51.8764C51.8364 94 51.8004 93.984 51.7684 93.952C51.7444 93.92 51.7404 93.884 51.7564 93.844C52.0844 92.764 52.9884 90.356 54.4684 86.62H51.4444C51.1724 86.62 51.0044 86.684 50.9404 86.812C50.8764 86.932 50.7964 86.992 50.7004 86.992C50.6044 86.992 50.5564 86.928 50.5564 86.8C50.5564 86.784 50.5764 86.512 50.6164 85.984C50.6244 85.864 50.6604 85.772 50.7244 85.708C50.7884 85.636 50.8604 85.6 50.9404 85.6H55.1884Z" fill="black"/>
<path d="M52.4987 178H48.0107C47.9147 178 47.8667 177.956 47.8667 177.868V177.76C47.8667 177.688 47.8867 177.62 47.9267 177.556C48.2867 176.996 48.7267 176.356 49.2467 175.636C49.7667 174.908 50.1587 174.356 50.4227 173.98C50.6867 173.596 50.9227 173.176 51.1307 172.72C51.3387 172.256 51.4427 171.812 51.4427 171.388C51.4427 170.956 51.3187 170.608 51.0707 170.344C50.8307 170.072 50.4987 169.936 50.0747 169.936C49.6587 169.936 49.3307 170.068 49.0907 170.332C48.8587 170.596 48.6907 170.9 48.5867 171.244C48.5467 171.388 48.4627 171.46 48.3347 171.46C48.2787 171.46 48.2307 171.44 48.1907 171.4C48.1507 171.352 48.1307 171.3 48.1307 171.244V170.296C48.1307 170.12 48.3387 169.94 48.7547 169.756C49.1707 169.564 49.6427 169.468 50.1707 169.468C50.9067 169.468 51.4867 169.66 51.9107 170.044C52.3427 170.428 52.5587 170.924 52.5587 171.532C52.5587 171.916 52.4627 172.312 52.2707 172.72C52.0787 173.12 51.8547 173.476 51.5987 173.788C51.3507 174.1 50.9587 174.58 50.4227 175.228C49.8867 175.868 49.4227 176.452 49.0307 176.98H51.9947C52.2667 176.98 52.4347 176.92 52.4987 176.8C52.5707 176.672 52.6467 176.608 52.7267 176.608C52.8467 176.608 52.8987 176.684 52.8827 176.836L52.8227 177.616C52.8147 177.736 52.7787 177.832 52.7147 177.904C52.6507 177.968 52.5787 178 52.4987 178ZM58.0134 177.868C58.0134 177.916 57.9934 177.96 57.9534 178C57.9214 178.032 57.8854 178.048 57.8454 178.048L56.1894 178L54.4374 178.048C54.3174 178.048 54.2574 177.992 54.2574 177.88C54.2574 177.76 54.3094 177.7 54.4134 177.7L55.0494 177.676C55.2094 177.66 55.3534 177.612 55.4814 177.532C55.6094 177.452 55.6734 177.336 55.6734 177.184V170.524C55.6734 170.212 55.5094 170.056 55.1814 170.056C55.1654 170.056 55.1494 170.056 55.1334 170.056L54.3414 170.092C54.2534 170.092 54.2094 170.04 54.2094 169.936C54.2094 169.832 54.2654 169.772 54.3774 169.756L56.5134 169.468C56.6334 169.468 56.6934 169.512 56.6934 169.6V177.184C56.6934 177.48 56.8734 177.644 57.2334 177.676L57.8694 177.7C57.9654 177.7 58.0134 177.756 58.0134 177.868Z" fill="black"/>
<path d="M52.3542 220H47.8662C47.7702 220 47.7222 219.956 47.7222 219.868V219.76C47.7222 219.688 47.7422 219.62 47.7822 219.556C48.1422 218.996 48.5822 218.356 49.1022 217.636C49.6222 216.908 50.0142 216.356 50.2782 215.98C50.5422 215.596 50.7782 215.176 50.9862 214.72C51.1942 214.256 51.2982 213.812 51.2982 213.388C51.2982 212.956 51.1742 212.608 50.9262 212.344C50.6862 212.072 50.3542 211.936 49.9302 211.936C49.5142 211.936 49.1862 212.068 48.9462 212.332C48.7142 212.596 48.5462 212.9 48.4422 213.244C48.4022 213.388 48.3182 213.46 48.1902 213.46C48.1342 213.46 48.0862 213.44 48.0462 213.4C48.0062 213.352 47.9862 213.3 47.9862 213.244V212.296C47.9862 212.12 48.1942 211.94 48.6102 211.756C49.0262 211.564 49.4982 211.468 50.0262 211.468C50.7622 211.468 51.3422 211.66 51.7662 212.044C52.1982 212.428 52.4142 212.924 52.4142 213.532C52.4142 213.916 52.3182 214.312 52.1262 214.72C51.9342 215.12 51.7102 215.476 51.4542 215.788C51.2062 216.1 50.8142 216.58 50.2782 217.228C49.7422 217.868 49.2782 218.452 48.8862 218.98H51.8502C52.1222 218.98 52.2902 218.92 52.3542 218.8C52.4262 218.672 52.5022 218.608 52.5822 218.608C52.7022 218.608 52.7542 218.684 52.7382 218.836L52.6782 219.616C52.6702 219.736 52.6342 219.832 52.5702 219.904C52.5062 219.968 52.4342 220 52.3542 220ZM56.4768 220.132C55.7888 220.132 55.2248 219.94 54.7848 219.556C54.3448 219.172 54.1248 218.712 54.1248 218.176C54.1248 217.632 54.2688 217.18 54.5568 216.82C54.8448 216.452 55.2528 216.084 55.7808 215.716C55.3488 215.396 55.0128 215.064 54.7728 214.72C54.5328 214.376 54.4128 213.94 54.4128 213.412C54.4128 212.884 54.6328 212.428 55.0728 212.044C55.5128 211.66 56.0408 211.468 56.6568 211.468C57.2728 211.468 57.7808 211.64 58.1808 211.984C58.5808 212.328 58.7808 212.74 58.7808 213.22C58.7808 213.692 58.6528 214.096 58.3968 214.432C58.1488 214.76 57.7928 215.084 57.3288 215.404C57.8808 215.772 58.3128 216.148 58.6248 216.532C58.9368 216.916 59.0928 217.412 59.0928 218.02C59.0928 218.62 58.8288 219.124 58.3008 219.532C57.7808 219.932 57.1728 220.132 56.4768 220.132ZM57.4968 216.964C57.2808 216.772 57.1088 216.632 56.9808 216.544C56.8608 216.456 56.6368 216.304 56.3088 216.088C55.8208 216.416 55.4448 216.736 55.1808 217.048C54.9248 217.352 54.7968 217.712 54.7968 218.128C54.7968 218.536 54.9608 218.884 55.2888 219.172C55.6168 219.46 56.0048 219.604 56.4528 219.604C56.9008 219.604 57.2808 219.464 57.5928 219.184C57.9128 218.904 58.0728 218.552 58.0728 218.128C58.0728 217.696 57.8808 217.308 57.4968 216.964ZM56.7288 211.996C56.3448 211.996 56.0248 212.116 55.7688 212.356C55.5128 212.588 55.3848 212.884 55.3848 213.244C55.3848 213.596 55.5048 213.908 55.7448 214.18C55.9848 214.444 56.3328 214.728 56.7888 215.032C57.2128 214.736 57.5368 214.452 57.7608 214.18C57.9928 213.908 58.1088 213.596 58.1088 213.244C58.1088 212.892 57.9728 212.596 57.7008 212.356C57.4368 212.116 57.1128 211.996 56.7288 211.996Z" fill="black"/>
<path d="M99.5094 2.476V9.208C99.5094 9.352 99.5614 9.468 99.6654 9.556C99.7694 9.636 99.8974 9.684 100.049 9.7L100.397 9.724C100.493 9.724 100.541 9.776 100.541 9.88C100.541 9.928 100.521 9.968 100.481 10C100.449 10.032 100.413 10.048 100.373 10.048L99.0174 10L97.5294 10.048C97.4894 10.048 97.4494 10.032 97.4094 10C97.3774 9.968 97.3614 9.928 97.3614 9.88C97.3614 9.776 97.4094 9.724 97.5054 9.724L97.9494 9.7C98.1014 9.684 98.2294 9.636 98.3334 9.556C98.4374 9.468 98.4894 9.352 98.4894 9.208V2.476C98.4894 2.26 98.3894 2.152 98.1894 2.152H97.1814C96.7894 2.152 96.4814 2.26 96.2574 2.476C96.0334 2.684 95.8574 2.996 95.7294 3.412C95.6814 3.532 95.6134 3.592 95.5254 3.592C95.4454 3.592 95.3854 3.572 95.3454 3.532C95.3054 3.484 95.2894 3.432 95.2974 3.376L95.3934 1.828C95.4094 1.676 95.4974 1.6 95.6574 1.6H102.305C102.473 1.6 102.565 1.696 102.581 1.888L102.701 3.376C102.709 3.44 102.693 3.492 102.653 3.532C102.613 3.572 102.549 3.592 102.461 3.592C102.381 3.592 102.317 3.532 102.269 3.412C102.125 2.988 101.941 2.672 101.717 2.464C101.501 2.256 101.201 2.152 100.817 2.152H99.8094C99.6094 2.152 99.5094 2.26 99.5094 2.476Z" fill="black"/>
<path d="M100.902 51.868C100.902 51.916 100.882 51.96 100.842 52C100.81 52.032 100.774 52.048 100.734 52.048L99.078 52L97.326 52.048C97.206 52.048 97.146 51.992 97.146 51.88C97.146 51.76 97.198 51.7 97.302 51.7L97.938 51.676C98.098 51.66 98.242 51.612 98.37 51.532C98.498 51.452 98.562 51.336 98.562 51.184V44.524C98.562 44.212 98.398 44.056 98.07 44.056C98.054 44.056 98.038 44.056 98.022 44.056L97.23 44.092C97.142 44.092 97.098 44.04 97.098 43.936C97.098 43.832 97.154 43.772 97.266 43.756L99.402 43.468C99.522 43.468 99.582 43.512 99.582 43.6V51.184C99.582 51.48 99.762 51.644 100.122 51.676L100.758 51.7C100.854 51.7 100.902 51.756 100.902 51.868Z" fill="black"/>
<path d="M98.5778 135.868C98.5778 135.916 98.5578 135.96 98.5178 136C98.4858 136.032 98.4498 136.048 98.4098 136.048L96.7538 136L95.0018 136.048C94.8818 136.048 94.8218 135.992 94.8218 135.88C94.8218 135.76 94.8738 135.7 94.9778 135.7L95.6138 135.676C95.7738 135.66 95.9178 135.612 96.0458 135.532C96.1738 135.452 96.2378 135.336 96.2378 135.184V128.524C96.2378 128.212 96.0738 128.056 95.7458 128.056C95.7298 128.056 95.7138 128.056 95.6978 128.056L94.9058 128.092C94.8178 128.092 94.7738 128.04 94.7738 127.936C94.7738 127.832 94.8298 127.772 94.9418 127.756L97.0778 127.468C97.1978 127.468 97.2578 127.512 97.2578 127.6V135.184C97.2578 135.48 97.4378 135.644 97.7978 135.676L98.4338 135.7C98.5298 135.7 98.5778 135.756 98.5778 135.868ZM103.666 128.62H100.978L100.75 130.492C101.726 130.636 102.51 130.944 103.102 131.416C103.694 131.888 103.99 132.496 103.99 133.24C103.99 133.728 103.862 134.172 103.606 134.572C103.358 134.964 103.034 135.28 102.634 135.52C101.826 136 100.978 136.24 100.09 136.24C99.8817 136.24 99.7777 136.156 99.7777 135.988C99.7777 135.844 99.8817 135.76 100.09 135.736C100.858 135.648 101.522 135.404 102.082 135.004C102.642 134.604 102.922 134.108 102.922 133.516C102.922 132.916 102.686 132.444 102.214 132.1C101.742 131.748 101.106 131.524 100.306 131.428C100.202 131.42 100.134 131.4 100.102 131.368C100.078 131.328 100.074 131.26 100.09 131.164L100.498 127.732C100.514 127.644 100.562 127.6 100.642 127.6H103.798C103.838 127.6 103.87 127.616 103.894 127.648C103.918 127.672 103.926 127.7 103.918 127.732L103.834 128.476C103.818 128.572 103.762 128.62 103.666 128.62Z" fill="black"/>
<path d="M99.3655 94.132C98.6775 94.132 98.1135 93.94 97.6735 93.556C97.2335 93.172 97.0135 92.712 97.0135 92.176C97.0135 91.632 97.1575 91.18 97.4455 90.82C97.7335 90.452 98.1415 90.084 98.6695 89.716C98.2375 89.396 97.9015 89.064 97.6615 88.72C97.4215 88.376 97.3015 87.94 97.3015 87.412C97.3015 86.884 97.5215 86.428 97.9615 86.044C98.4015 85.66 98.9295 85.468 99.5455 85.468C100.162 85.468 100.67 85.64 101.07 85.984C101.47 86.328 101.67 86.74 101.67 87.22C101.67 87.692 101.542 88.096 101.286 88.432C101.038 88.76 100.682 89.084 100.218 89.404C100.77 89.772 101.202 90.148 101.514 90.532C101.826 90.916 101.982 91.412 101.982 92.02C101.982 92.62 101.718 93.124 101.19 93.532C100.67 93.932 100.062 94.132 99.3655 94.132ZM100.386 90.964C100.17 90.772 99.9975 90.632 99.8695 90.544C99.7495 90.456 99.5255 90.304 99.1975 90.088C98.7095 90.416 98.3335 90.736 98.0695 91.048C97.8135 91.352 97.6855 91.712 97.6855 92.128C97.6855 92.536 97.8495 92.884 98.1775 93.172C98.5055 93.46 98.8935 93.604 99.3415 93.604C99.7895 93.604 100.17 93.464 100.482 93.184C100.802 92.904 100.962 92.552 100.962 92.128C100.962 91.696 100.77 91.308 100.386 90.964ZM99.6175 85.996C99.2335 85.996 98.9135 86.116 98.6575 86.356C98.4015 86.588 98.2735 86.884 98.2735 87.244C98.2735 87.596 98.3935 87.908 98.6335 88.18C98.8735 88.444 99.2215 88.728 99.6775 89.032C100.102 88.736 100.426 88.452 100.65 88.18C100.882 87.908 100.998 87.596 100.998 87.244C100.998 86.892 100.862 86.596 100.59 86.356C100.326 86.116 100.002 85.996 99.6175 85.996Z" fill="black"/>
<path d="M98.3893 178H93.9013C93.8053 178 93.7573 177.956 93.7573 177.868V177.76C93.7573 177.688 93.7773 177.62 93.8173 177.556C94.1773 176.996 94.6173 176.356 95.1373 175.636C95.6573 174.908 96.0493 174.356 96.3133 173.98C96.5773 173.596 96.8133 173.176 97.0213 172.72C97.2293 172.256 97.3333 171.812 97.3333 171.388C97.3333 170.956 97.2093 170.608 96.9613 170.344C96.7213 170.072 96.3893 169.936 95.9653 169.936C95.5493 169.936 95.2213 170.068 94.9813 170.332C94.7493 170.596 94.5813 170.9 94.4773 171.244C94.4373 171.388 94.3533 171.46 94.2253 171.46C94.1693 171.46 94.1213 171.44 94.0813 171.4C94.0413 171.352 94.0213 171.3 94.0213 171.244V170.296C94.0213 170.12 94.2293 169.94 94.6453 169.756C95.0613 169.564 95.5333 169.468 96.0613 169.468C96.7973 169.468 97.3773 169.66 97.8013 170.044C98.2333 170.428 98.4493 170.924 98.4493 171.532C98.4493 171.916 98.3533 172.312 98.1613 172.72C97.9693 173.12 97.7453 173.476 97.4893 173.788C97.2413 174.1 96.8493 174.58 96.3133 175.228C95.7773 175.868 95.3133 176.452 94.9213 176.98H97.8853C98.1573 176.98 98.3253 176.92 98.3893 176.8C98.4613 176.672 98.5373 176.608 98.6173 176.608C98.7373 176.608 98.7893 176.684 98.7733 176.836L98.7133 177.616C98.7053 177.736 98.6693 177.832 98.6053 177.904C98.5413 177.968 98.4693 178 98.3893 178ZM104.612 178H100.124C100.028 178 99.98 177.956 99.98 177.868V177.76C99.98 177.688 100 177.62 100.04 177.556C100.4 176.996 100.84 176.356 101.36 175.636C101.88 174.908 102.272 174.356 102.536 173.98C102.8 173.596 103.036 173.176 103.244 172.72C103.452 172.256 103.556 171.812 103.556 171.388C103.556 170.956 103.432 170.608 103.184 170.344C102.944 170.072 102.612 169.936 102.188 169.936C101.772 169.936 101.444 170.068 101.204 170.332C100.972 170.596 100.804 170.9 100.7 171.244C100.66 171.388 100.576 171.46 100.448 171.46C100.392 171.46 100.344 171.44 100.304 171.4C100.264 171.352 100.244 171.3 100.244 171.244V170.296C100.244 170.12 100.452 169.94 100.868 169.756C101.284 169.564 101.756 169.468 102.284 169.468C103.02 169.468 103.6 169.66 104.024 170.044C104.456 170.428 104.672 170.924 104.672 171.532C104.672 171.916 104.576 172.312 104.384 172.72C104.192 173.12 103.968 173.476 103.712 173.788C103.464 174.1 103.072 174.58 102.536 175.228C102 175.868 101.536 176.452 101.144 176.98H104.108C104.38 176.98 104.548 176.92 104.612 176.8C104.684 176.672 104.76 176.608 104.84 176.608C104.96 176.608 105.012 176.684 104.996 176.836L104.936 177.616C104.928 177.736 104.892 177.832 104.828 177.904C104.764 177.968 104.692 178 104.612 178Z" fill="black"/>
<path d="M98.2663 220H93.7783C93.6823 220 93.6343 219.956 93.6343 219.868V219.76C93.6343 219.688 93.6543 219.62 93.6943 219.556C94.0543 218.996 94.4943 218.356 95.0143 217.636C95.5343 216.908 95.9263 216.356 96.1903 215.98C96.4543 215.596 96.6903 215.176 96.8983 214.72C97.1063 214.256 97.2103 213.812 97.2103 213.388C97.2103 212.956 97.0863 212.608 96.8383 212.344C96.5983 212.072 96.2663 211.936 95.8423 211.936C95.4263 211.936 95.0983 212.068 94.8583 212.332C94.6263 212.596 94.4583 212.9 94.3543 213.244C94.3143 213.388 94.2303 213.46 94.1023 213.46C94.0463 213.46 93.9983 213.44 93.9583 213.4C93.9183 213.352 93.8983 213.3 93.8983 213.244V212.296C93.8983 212.12 94.1063 211.94 94.5223 211.756C94.9383 211.564 95.4103 211.468 95.9383 211.468C96.6743 211.468 97.2543 211.66 97.6783 212.044C98.1103 212.428 98.3263 212.924 98.3263 213.532C98.3263 213.916 98.2303 214.312 98.0383 214.72C97.8463 215.12 97.6223 215.476 97.3663 215.788C97.1183 216.1 96.7263 216.58 96.1903 217.228C95.6543 217.868 95.1903 218.452 94.7983 218.98H97.7623C98.0343 218.98 98.2023 218.92 98.2663 218.8C98.3383 218.672 98.4143 218.608 98.4943 218.608C98.6143 218.608 98.6663 218.684 98.6503 218.836L98.5903 219.616C98.5823 219.736 98.5463 219.832 98.4823 219.904C98.4183 219.968 98.3463 220 98.2663 220ZM99.857 214.048C99.865 213.352 100.117 212.748 100.613 212.236C101.117 211.724 101.773 211.468 102.581 211.468C103.397 211.468 104.045 211.74 104.525 212.284C105.005 212.82 105.245 213.588 105.245 214.588C105.245 215.58 104.893 216.616 104.189 217.696C103.485 218.768 102.541 219.58 101.357 220.132C101.349 220.14 101.313 220.144 101.249 220.144C101.185 220.144 101.117 220.124 101.045 220.084C100.981 220.052 100.949 219.988 100.949 219.892C100.949 219.788 101.009 219.7 101.129 219.628C102.633 218.724 103.589 217.508 103.997 215.98C103.573 216.364 103.041 216.556 102.401 216.556C101.585 216.556 100.957 216.312 100.517 215.824C100.077 215.336 99.857 214.744 99.857 214.048ZM103.721 212.548C103.433 212.164 103.045 211.972 102.557 211.972C102.069 211.972 101.677 212.164 101.381 212.548C101.093 212.924 100.949 213.42 100.949 214.036C100.949 214.644 101.097 215.12 101.393 215.464C101.689 215.8 102.077 215.968 102.557 215.968C103.037 215.968 103.425 215.8 103.721 215.464C104.017 215.12 104.165 214.644 104.165 214.036C104.165 213.42 104.017 212.924 103.721 212.548Z" fill="black"/>
<path d="M144.288 9.988C144.256 10.084 144.172 10.132 144.036 10.132C143.9 10.132 143.812 10.084 143.772 9.988L141.18 2.392C141.076 2.096 140.848 1.932 140.496 1.9L140.244 1.876C140.212 1.876 140.184 1.86 140.16 1.828C140.136 1.796 140.124 1.764 140.124 1.732C140.124 1.612 140.18 1.552 140.292 1.552L141.516 1.6L142.848 1.552C142.96 1.552 143.016 1.6 143.016 1.696C143.016 1.808 142.968 1.868 142.872 1.876L142.596 1.9C142.46 1.908 142.36 1.96 142.296 2.056C142.24 2.152 142.232 2.264 142.272 2.392L144.24 8.404L146.436 1.708C146.468 1.604 146.56 1.552 146.712 1.552C146.864 1.552 146.956 1.604 146.988 1.708L149.172 8.404L151.152 2.392C151.192 2.256 151.18 2.144 151.116 2.056C151.06 1.96 150.96 1.908 150.816 1.9L150.552 1.876C150.448 1.86 150.396 1.808 150.396 1.72C150.396 1.608 150.456 1.552 150.576 1.552L151.62 1.6L152.712 1.552C152.824 1.552 152.88 1.608 152.88 1.72C152.88 1.824 152.836 1.876 152.748 1.876L152.52 1.9C152.152 1.948 151.92 2.112 151.824 2.392L149.22 9.988C149.188 10.084 149.104 10.132 148.968 10.132C148.832 10.132 148.744 10.084 148.704 9.988L146.496 3.424L144.288 9.988Z" fill="black"/>
<path d="M148.501 52H144.013C143.917 52 143.869 51.956 143.869 51.868V51.76C143.869 51.688 143.889 51.62 143.929 51.556C144.289 50.996 144.729 50.356 145.249 49.636C145.769 48.908 146.161 48.356 146.425 47.98C146.689 47.596 146.925 47.176 147.133 46.72C147.341 46.256 147.445 45.812 147.445 45.388C147.445 44.956 147.321 44.608 147.073 44.344C146.833 44.072 146.501 43.936 146.077 43.936C145.661 43.936 145.333 44.068 145.093 44.332C144.861 44.596 144.693 44.9 144.589 45.244C144.549 45.388 144.465 45.46 144.337 45.46C144.281 45.46 144.233 45.44 144.193 45.4C144.153 45.352 144.133 45.3 144.133 45.244V44.296C144.133 44.12 144.341 43.94 144.757 43.756C145.173 43.564 145.645 43.468 146.173 43.468C146.909 43.468 147.489 43.66 147.913 44.044C148.345 44.428 148.561 44.924 148.561 45.532C148.561 45.916 148.465 46.312 148.273 46.72C148.081 47.12 147.857 47.476 147.601 47.788C147.353 48.1 146.961 48.58 146.425 49.228C145.889 49.868 145.425 50.452 145.033 50.98H147.997C148.269 50.98 148.437 50.92 148.501 50.8C148.573 50.672 148.649 50.608 148.729 50.608C148.849 50.608 148.901 50.684 148.885 50.836L148.825 51.616C148.817 51.736 148.781 51.832 148.717 51.904C148.653 51.968 148.581 52 148.501 52Z" fill="black"/>
<path d="M144.55 135.868C144.55 135.916 144.53 135.96 144.49 136C144.458 136.032 144.422 136.048 144.382 136.048L142.726 136L140.974 136.048C140.854 136.048 140.794 135.992 140.794 135.88C140.794 135.76 140.846 135.7 140.95 135.7L141.586 135.676C141.746 135.66 141.89 135.612 142.018 135.532C142.146 135.452 142.21 135.336 142.21 135.184V128.524C142.21 128.212 142.046 128.056 141.718 128.056C141.702 128.056 141.686 128.056 141.67 128.056L140.878 128.092C140.79 128.092 140.746 128.04 140.746 127.936C140.746 127.832 140.802 127.772 140.914 127.756L143.05 127.468C143.17 127.468 143.23 127.512 143.23 127.6V135.184C143.23 135.48 143.41 135.644 143.77 135.676L144.406 135.7C144.502 135.7 144.55 135.756 144.55 135.868ZM151.246 133.552C151.246 134.248 150.994 134.852 150.49 135.364C149.994 135.876 149.338 136.132 148.522 136.132C147.714 136.132 147.07 135.864 146.59 135.328C146.11 134.784 145.87 134.016 145.87 133.024C145.87 132.024 146.222 130.988 146.926 129.916C147.63 128.836 148.574 128.02 149.758 127.468C149.766 127.46 149.802 127.456 149.866 127.456C149.93 127.456 149.994 127.476 150.058 127.516C150.13 127.548 150.166 127.616 150.166 127.72C150.166 127.816 150.106 127.9 149.986 127.972C148.482 128.876 147.526 130.092 147.118 131.62C147.542 131.236 148.074 131.044 148.714 131.044C149.53 131.044 150.158 131.288 150.598 131.776C151.038 132.264 151.254 132.856 151.246 133.552ZM147.382 135.064C147.678 135.44 148.07 135.628 148.558 135.628C149.046 135.628 149.434 135.44 149.722 135.064C150.018 134.68 150.166 134.184 150.166 133.576C150.166 132.96 150.018 132.484 149.722 132.148C149.426 131.804 149.038 131.632 148.558 131.632C148.078 131.632 147.69 131.804 147.394 132.148C147.098 132.484 146.95 132.96 146.95 133.576C146.95 134.184 147.094 134.68 147.382 135.064Z" fill="black"/>
<path d="M143.746 88.048C143.754 87.352 144.006 86.748 144.502 86.236C145.006 85.724 145.662 85.468 146.47 85.468C147.286 85.468 147.934 85.74 148.414 86.284C148.894 86.82 149.134 87.588 149.134 88.588C149.134 89.58 148.782 90.616 148.078 91.696C147.374 92.768 146.43 93.58 145.246 94.132C145.238 94.14 145.202 94.144 145.138 94.144C145.074 94.144 145.006 94.124 144.934 94.084C144.87 94.052 144.838 93.988 144.838 93.892C144.838 93.788 144.898 93.7 145.018 93.628C146.522 92.724 147.478 91.508 147.886 89.98C147.462 90.364 146.93 90.556 146.29 90.556C145.474 90.556 144.846 90.312 144.406 89.824C143.966 89.336 143.746 88.744 143.746 88.048ZM147.61 86.548C147.322 86.164 146.934 85.972 146.446 85.972C145.958 85.972 145.566 86.164 145.27 86.548C144.982 86.924 144.838 87.42 144.838 88.036C144.838 88.644 144.986 89.12 145.282 89.464C145.578 89.8 145.966 89.968 146.446 89.968C146.926 89.968 147.314 89.8 147.61 89.464C147.906 89.12 148.054 88.644 148.054 88.036C148.054 87.42 147.906 86.924 147.61 86.548Z" fill="black"/>
<path d="M145.171 178H140.683C140.587 178 140.539 177.956 140.539 177.868V177.76C140.539 177.688 140.559 177.62 140.599 177.556C140.959 176.996 141.399 176.356 141.919 175.636C142.439 174.908 142.831 174.356 143.095 173.98C143.359 173.596 143.595 173.176 143.803 172.72C144.011 172.256 144.115 171.812 144.115 171.388C144.115 170.956 143.991 170.608 143.743 170.344C143.503 170.072 143.171 169.936 142.747 169.936C142.331 169.936 142.003 170.068 141.763 170.332C141.531 170.596 141.363 170.9 141.259 171.244C141.219 171.388 141.135 171.46 141.007 171.46C140.951 171.46 140.903 171.44 140.863 171.4C140.823 171.352 140.803 171.3 140.803 171.244V170.296C140.803 170.12 141.011 169.94 141.427 169.756C141.843 169.564 142.315 169.468 142.843 169.468C143.579 169.468 144.159 169.66 144.583 170.044C145.015 170.428 145.231 170.924 145.231 171.532C145.231 171.916 145.135 172.312 144.943 172.72C144.751 173.12 144.527 173.476 144.271 173.788C144.023 174.1 143.631 174.58 143.095 175.228C142.559 175.868 142.095 176.452 141.703 176.98H144.667C144.939 176.98 145.107 176.92 145.171 176.8C145.243 176.672 145.319 176.608 145.399 176.608C145.519 176.608 145.571 176.684 145.555 176.836L145.495 177.616C145.487 177.736 145.451 177.832 145.387 177.904C145.323 177.968 145.251 178 145.171 178ZM148.957 173.428C149.589 173.476 150.125 173.688 150.565 174.064C151.005 174.44 151.225 174.896 151.225 175.432C151.225 175.96 151.097 176.408 150.841 176.776C150.585 177.136 150.249 177.416 149.833 177.616C148.993 178.032 148.089 178.24 147.121 178.24C146.913 178.24 146.809 178.156 146.809 177.988C146.809 177.932 146.837 177.88 146.893 177.832C146.949 177.776 147.025 177.744 147.121 177.736C147.993 177.664 148.701 177.452 149.245 177.1C149.797 176.748 150.073 176.236 150.073 175.564C150.073 175.052 149.889 174.652 149.521 174.364C149.161 174.076 148.653 173.928 147.997 173.92C147.749 173.92 147.625 173.848 147.625 173.704C147.625 173.624 147.669 173.556 147.757 173.5C148.533 173.052 149.073 172.64 149.377 172.264C149.689 171.88 149.845 171.504 149.845 171.136C149.845 170.76 149.741 170.468 149.533 170.26C149.325 170.044 149.065 169.936 148.753 169.936C148.449 169.936 148.201 169.996 148.009 170.116C147.817 170.236 147.677 170.36 147.589 170.488C147.509 170.608 147.409 170.796 147.289 171.052C147.177 171.308 147.065 171.436 146.953 171.436C146.897 171.436 146.849 171.412 146.809 171.364C146.777 171.316 146.761 171.272 146.761 171.232V170.284C146.761 170.108 146.953 169.928 147.337 169.744C147.729 169.56 148.217 169.468 148.801 169.468C149.393 169.468 149.901 169.604 150.325 169.876C150.757 170.148 150.973 170.552 150.973 171.088C150.973 171.592 150.737 172.056 150.265 172.48C149.921 172.792 149.485 173.108 148.957 173.428Z" fill="black"/>
<path d="M142.125 215.428C142.757 215.476 143.293 215.688 143.733 216.064C144.173 216.44 144.393 216.896 144.393 217.432C144.393 217.96 144.265 218.408 144.009 218.776C143.753 219.136 143.417 219.416 143.001 219.616C142.161 220.032 141.257 220.24 140.289 220.24C140.081 220.24 139.977 220.156 139.977 219.988C139.977 219.932 140.005 219.88 140.061 219.832C140.117 219.776 140.193 219.744 140.289 219.736C141.161 219.664 141.869 219.452 142.413 219.1C142.965 218.748 143.241 218.236 143.241 217.564C143.241 217.052 143.057 216.652 142.689 216.364C142.329 216.076 141.821 215.928 141.165 215.92C140.917 215.92 140.793 215.848 140.793 215.704C140.793 215.624 140.837 215.556 140.925 215.5C141.701 215.052 142.241 214.64 142.545 214.264C142.857 213.88 143.013 213.504 143.013 213.136C143.013 212.76 142.909 212.468 142.701 212.26C142.493 212.044 142.233 211.936 141.921 211.936C141.617 211.936 141.369 211.996 141.177 212.116C140.985 212.236 140.845 212.36 140.757 212.488C140.677 212.608 140.577 212.796 140.457 213.052C140.345 213.308 140.233 213.436 140.121 213.436C140.065 213.436 140.017 213.412 139.977 213.364C139.945 213.316 139.929 213.272 139.929 213.232V212.284C139.929 212.108 140.121 211.928 140.505 211.744C140.897 211.56 141.385 211.468 141.969 211.468C142.561 211.468 143.069 211.604 143.493 211.876C143.925 212.148 144.141 212.552 144.141 213.088C144.141 213.592 143.905 214.056 143.433 214.48C143.089 214.792 142.653 215.108 142.125 215.428ZM148.829 211.984C147.501 211.984 146.837 213.256 146.837 215.8C146.837 218.344 147.501 219.616 148.829 219.616C150.157 219.616 150.821 218.344 150.821 215.8C150.821 213.256 150.157 211.984 148.829 211.984ZM146.513 218.932C145.977 218.124 145.709 217.08 145.709 215.8C145.709 214.52 145.977 213.48 146.513 212.68C147.057 211.872 147.829 211.468 148.829 211.468C149.829 211.468 150.597 211.872 151.133 212.68C151.677 213.48 151.949 214.52 151.949 215.8C151.949 217.08 151.677 218.124 151.133 218.932C150.597 219.732 149.829 220.132 148.829 220.132C147.829 220.132 147.057 219.732 146.513 218.932Z" fill="black"/>
<path d="M193.509 2.476V9.208C193.509 9.352 193.561 9.468 193.665 9.556C193.769 9.636 193.897 9.684 194.049 9.7L194.397 9.724C194.493 9.724 194.541 9.776 194.541 9.88C194.541 9.928 194.521 9.968 194.481 10C194.449 10.032 194.413 10.048 194.373 10.048L193.017 10L191.529 10.048C191.489 10.048 191.449 10.032 191.409 10C191.377 9.968 191.361 9.928 191.361 9.88C191.361 9.776 191.409 9.724 191.505 9.724L191.949 9.7C192.101 9.684 192.229 9.636 192.333 9.556C192.437 9.468 192.489 9.352 192.489 9.208V2.476C192.489 2.26 192.389 2.152 192.189 2.152H191.181C190.789 2.152 190.481 2.26 190.257 2.476C190.033 2.684 189.857 2.996 189.729 3.412C189.681 3.532 189.613 3.592 189.525 3.592C189.445 3.592 189.385 3.572 189.345 3.532C189.305 3.484 189.289 3.432 189.297 3.376L189.393 1.828C189.409 1.676 189.497 1.6 189.657 1.6H196.305C196.473 1.6 196.565 1.696 196.581 1.888L196.701 3.376C196.709 3.44 196.693 3.492 196.653 3.532C196.613 3.572 196.549 3.592 196.461 3.592C196.381 3.592 196.317 3.532 196.269 3.412C196.125 2.988 195.941 2.672 195.717 2.464C195.501 2.256 195.201 2.152 194.817 2.152H193.809C193.609 2.152 193.509 2.26 193.509 2.476Z" fill="black"/>
<path d="M192.846 47.428C193.478 47.476 194.014 47.688 194.454 48.064C194.894 48.44 195.114 48.896 195.114 49.432C195.114 49.96 194.986 50.408 194.73 50.776C194.474 51.136 194.138 51.416 193.722 51.616C192.882 52.032 191.978 52.24 191.01 52.24C190.802 52.24 190.698 52.156 190.698 51.988C190.698 51.932 190.726 51.88 190.782 51.832C190.838 51.776 190.914 51.744 191.01 51.736C191.882 51.664 192.59 51.452 193.134 51.1C193.686 50.748 193.962 50.236 193.962 49.564C193.962 49.052 193.778 48.652 193.41 48.364C193.05 48.076 192.542 47.928 191.886 47.92C191.638 47.92 191.514 47.848 191.514 47.704C191.514 47.624 191.558 47.556 191.646 47.5C192.422 47.052 192.962 46.64 193.266 46.264C193.578 45.88 193.734 45.504 193.734 45.136C193.734 44.76 193.63 44.468 193.422 44.26C193.214 44.044 192.954 43.936 192.642 43.936C192.338 43.936 192.09 43.996 191.898 44.116C191.706 44.236 191.566 44.36 191.478 44.488C191.398 44.608 191.298 44.796 191.178 45.052C191.066 45.308 190.954 45.436 190.842 45.436C190.786 45.436 190.738 45.412 190.698 45.364C190.666 45.316 190.65 45.272 190.65 45.232V44.284C190.65 44.108 190.842 43.928 191.226 43.744C191.618 43.56 192.106 43.468 192.69 43.468C193.282 43.468 193.79 43.604 194.214 43.876C194.646 44.148 194.862 44.552 194.862 45.088C194.862 45.592 194.626 46.056 194.154 46.48C193.81 46.792 193.374 47.108 192.846 47.428Z" fill="black"/>
<path d="M192.718 135.868C192.718 135.916 192.698 135.96 192.658 136C192.626 136.032 192.59 136.048 192.55 136.048L190.894 136L189.142 136.048C189.022 136.048 188.962 135.992 188.962 135.88C188.962 135.76 189.014 135.7 189.118 135.7L189.754 135.676C189.914 135.66 190.058 135.612 190.186 135.532C190.314 135.452 190.378 135.336 190.378 135.184V128.524C190.378 128.212 190.214 128.056 189.886 128.056C189.87 128.056 189.854 128.056 189.838 128.056L189.046 128.092C188.958 128.092 188.914 128.04 188.914 127.936C188.914 127.832 188.97 127.772 189.082 127.756L191.218 127.468C191.338 127.468 191.398 127.512 191.398 127.6V135.184C191.398 135.48 191.578 135.644 191.938 135.676L192.574 135.7C192.67 135.7 192.718 135.756 192.718 135.868ZM198.19 127.6C198.278 127.6 198.322 127.64 198.322 127.72C198.322 127.744 198.318 127.764 198.31 127.78C197.102 131.332 196.27 134.024 195.814 135.856C195.798 135.952 195.742 136 195.646 136H194.878C194.838 136 194.802 135.984 194.77 135.952C194.746 135.92 194.742 135.884 194.758 135.844C195.086 134.764 195.99 132.356 197.47 128.62H194.446C194.174 128.62 194.006 128.684 193.942 128.812C193.878 128.932 193.798 128.992 193.702 128.992C193.606 128.992 193.558 128.928 193.558 128.8C193.558 128.784 193.578 128.512 193.618 127.984C193.626 127.864 193.662 127.772 193.726 127.708C193.79 127.636 193.862 127.6 193.942 127.6H198.19Z" fill="black"/>
<path d="M191.681 93.868C191.681 93.916 191.661 93.96 191.621 94C191.589 94.032 191.553 94.048 191.513 94.048L189.857 94L188.105 94.048C187.985 94.048 187.925 93.992 187.925 93.88C187.925 93.76 187.977 93.7 188.081 93.7L188.717 93.676C188.877 93.66 189.021 93.612 189.149 93.532C189.277 93.452 189.341 93.336 189.341 93.184V86.524C189.341 86.212 189.177 86.056 188.849 86.056C188.833 86.056 188.817 86.056 188.801 86.056L188.009 86.092C187.921 86.092 187.877 86.04 187.877 85.936C187.877 85.832 187.933 85.772 188.045 85.756L190.181 85.468C190.301 85.468 190.361 85.512 190.361 85.6V93.184C190.361 93.48 190.541 93.644 190.901 93.676L191.537 93.7C191.633 93.7 191.681 93.756 191.681 93.868ZM196.001 85.984C194.673 85.984 194.009 87.256 194.009 89.8C194.009 92.344 194.673 93.616 196.001 93.616C197.329 93.616 197.993 92.344 197.993 89.8C197.993 87.256 197.329 85.984 196.001 85.984ZM193.685 92.932C193.149 92.124 192.881 91.08 192.881 89.8C192.881 88.52 193.149 87.48 193.685 86.68C194.229 85.872 195.001 85.468 196.001 85.468C197.001 85.468 197.769 85.872 198.305 86.68C198.849 87.48 199.121 88.52 199.121 89.8C199.121 91.08 198.849 92.124 198.305 92.932C197.769 93.732 197.001 94.132 196.001 94.132C195.001 94.132 194.229 93.732 193.685 92.932Z" fill="black"/>
<path d="M192.266 178H187.778C187.682 178 187.634 177.956 187.634 177.868V177.76C187.634 177.688 187.654 177.62 187.694 177.556C188.054 176.996 188.494 176.356 189.014 175.636C189.534 174.908 189.926 174.356 190.19 173.98C190.454 173.596 190.69 173.176 190.898 172.72C191.106 172.256 191.21 171.812 191.21 171.388C191.21 170.956 191.086 170.608 190.838 170.344C190.598 170.072 190.266 169.936 189.842 169.936C189.426 169.936 189.098 170.068 188.858 170.332C188.626 170.596 188.458 170.9 188.354 171.244C188.314 171.388 188.23 171.46 188.102 171.46C188.046 171.46 187.998 171.44 187.958 171.4C187.918 171.352 187.898 171.3 187.898 171.244V170.296C187.898 170.12 188.106 169.94 188.522 169.756C188.938 169.564 189.41 169.468 189.938 169.468C190.674 169.468 191.254 169.66 191.678 170.044C192.11 170.428 192.326 170.924 192.326 171.532C192.326 171.916 192.23 172.312 192.038 172.72C191.846 173.12 191.622 173.476 191.366 173.788C191.118 174.1 190.726 174.58 190.19 175.228C189.654 175.868 189.19 176.452 188.798 176.98H191.762C192.034 176.98 192.202 176.92 192.266 176.8C192.338 176.672 192.414 176.608 192.494 176.608C192.614 176.608 192.666 176.684 192.65 176.836L192.59 177.616C192.582 177.736 192.546 177.832 192.482 177.904C192.418 177.968 192.346 178 192.266 178ZM199.485 175.42C199.485 175.588 199.413 175.672 199.269 175.672H198.381V177.748C198.381 177.916 198.297 178 198.129 178H197.625C197.457 178 197.373 177.916 197.373 177.748V175.672H193.641C193.545 175.672 193.497 175.628 193.497 175.54V175.384C193.497 175.304 193.517 175.236 193.557 175.18L197.565 169.648C197.653 169.528 197.757 169.468 197.877 169.468H198.105C198.209 169.468 198.281 169.492 198.321 169.54C198.361 169.58 198.381 169.652 198.381 169.756V174.976H199.269C199.413 174.976 199.485 175.04 199.485 175.168V175.42ZM197.373 174.976V170.86L194.589 174.784C194.557 174.84 194.541 174.888 194.541 174.928C194.541 174.96 194.573 174.976 194.637 174.976H197.373Z" fill="black"/>
<path d="M190.844 215.428C191.476 215.476 192.012 215.688 192.452 216.064C192.892 216.44 193.112 216.896 193.112 217.432C193.112 217.96 192.984 218.408 192.728 218.776C192.472 219.136 192.136 219.416 191.72 219.616C190.88 220.032 189.976 220.24 189.008 220.24C188.8 220.24 188.696 220.156 188.696 219.988C188.696 219.932 188.724 219.88 188.78 219.832C188.836 219.776 188.912 219.744 189.008 219.736C189.88 219.664 190.588 219.452 191.132 219.1C191.684 218.748 191.96 218.236 191.96 217.564C191.96 217.052 191.776 216.652 191.408 216.364C191.048 216.076 190.54 215.928 189.884 215.92C189.636 215.92 189.512 215.848 189.512 215.704C189.512 215.624 189.556 215.556 189.644 215.5C190.42 215.052 190.96 214.64 191.264 214.264C191.576 213.88 191.732 213.504 191.732 213.136C191.732 212.76 191.628 212.468 191.42 212.26C191.212 212.044 190.952 211.936 190.64 211.936C190.336 211.936 190.088 211.996 189.896 212.116C189.704 212.236 189.564 212.36 189.476 212.488C189.396 212.608 189.296 212.796 189.176 213.052C189.064 213.308 188.952 213.436 188.84 213.436C188.784 213.436 188.736 213.412 188.696 213.364C188.664 213.316 188.648 213.272 188.648 213.232V212.284C188.648 212.108 188.84 211.928 189.224 211.744C189.616 211.56 190.104 211.468 190.688 211.468C191.28 211.468 191.788 211.604 192.212 211.876C192.644 212.148 192.86 212.552 192.86 213.088C192.86 213.592 192.624 214.056 192.152 214.48C191.808 214.792 191.372 215.108 190.844 215.428ZM198.232 219.868C198.232 219.916 198.212 219.96 198.172 220C198.14 220.032 198.104 220.048 198.064 220.048L196.408 220L194.656 220.048C194.536 220.048 194.476 219.992 194.476 219.88C194.476 219.76 194.528 219.7 194.632 219.7L195.268 219.676C195.428 219.66 195.572 219.612 195.7 219.532C195.828 219.452 195.892 219.336 195.892 219.184V212.524C195.892 212.212 195.728 212.056 195.4 212.056C195.384 212.056 195.368 212.056 195.352 212.056L194.56 212.092C194.472 212.092 194.428 212.04 194.428 211.936C194.428 211.832 194.484 211.772 194.596 211.756L196.732 211.468C196.852 211.468 196.912 211.512 196.912 211.6V219.184C196.912 219.48 197.092 219.644 197.452 219.676L198.088 219.7C198.184 219.7 198.232 219.756 198.232 219.868Z" fill="black"/>
<path d="M241.74 3.184C241.756 3.328 241.696 3.4 241.56 3.4C241.432 3.4 241.348 3.336 241.308 3.208C241.188 2.824 241.008 2.552 240.768 2.392C240.528 2.232 240.196 2.152 239.772 2.152H238.008C237.832 2.152 237.688 2.204 237.576 2.308C237.472 2.404 237.42 2.54 237.42 2.716V5.356C237.42 5.46 237.472 5.512 237.576 5.512H239.688C239.792 5.512 239.876 5.488 239.94 5.44C240.012 5.384 240.056 5.328 240.072 5.272C240.096 5.216 240.128 5.128 240.168 5.008L240.216 4.852C240.24 4.764 240.292 4.72 240.372 4.72C240.484 4.72 240.54 4.772 240.54 4.876L240.492 5.908L240.54 6.904C240.54 7.016 240.488 7.072 240.384 7.072C240.288 7.072 240.232 7.024 240.216 6.928L240.18 6.712C240.148 6.504 240.096 6.348 240.024 6.244C239.96 6.14 239.848 6.088 239.688 6.088H237.564C237.468 6.088 237.42 6.144 237.42 6.256V9.208C237.42 9.504 237.596 9.668 237.948 9.7L238.308 9.724C238.404 9.724 238.452 9.772 238.452 9.868C238.452 9.988 238.392 10.048 238.272 10.048L236.892 10L235.536 10.048C235.424 10.048 235.368 9.996 235.368 9.892C235.368 9.78 235.412 9.724 235.5 9.724L235.848 9.7C236.008 9.684 236.14 9.636 236.244 9.556C236.348 9.468 236.4 9.352 236.4 9.208V2.392C236.4 2.104 236.216 1.944 235.848 1.912L235.5 1.876C235.412 1.876 235.368 1.824 235.368 1.72C235.368 1.608 235.424 1.552 235.536 1.552L236.892 1.6H241.032C241.184 1.6 241.308 1.648 241.404 1.744C241.5 1.832 241.556 1.944 241.572 2.08L241.74 3.184Z" fill="black"/>
<path d="M241.374 49.42C241.374 49.588 241.302 49.672 241.158 49.672H240.27V51.748C240.27 51.916 240.186 52 240.018 52H239.514C239.346 52 239.262 51.916 239.262 51.748V49.672H235.53C235.434 49.672 235.386 49.628 235.386 49.54V49.384C235.386 49.304 235.406 49.236 235.446 49.18L239.454 43.648C239.542 43.528 239.646 43.468 239.766 43.468H239.994C240.098 43.468 240.17 43.492 240.21 43.54C240.25 43.58 240.27 43.652 240.27 43.756V48.976H241.158C241.302 48.976 241.374 49.04 241.374 49.168V49.42ZM239.262 48.976V44.86L236.478 48.784C236.446 48.84 236.43 48.888 236.43 48.928C236.43 48.96 236.462 48.976 236.526 48.976H239.262Z" fill="black"/>
<path d="M236.756 135.868C236.756 135.916 236.736 135.96 236.696 136C236.664 136.032 236.628 136.048 236.588 136.048L234.932 136L233.18 136.048C233.06 136.048 233 135.992 233 135.88C233 135.76 233.052 135.7 233.156 135.7L233.792 135.676C233.952 135.66 234.096 135.612 234.224 135.532C234.352 135.452 234.416 135.336 234.416 135.184V128.524C234.416 128.212 234.252 128.056 233.924 128.056C233.908 128.056 233.892 128.056 233.876 128.056L233.084 128.092C232.996 128.092 232.952 128.04 232.952 127.936C232.952 127.832 233.008 127.772 233.12 127.756L235.256 127.468C235.376 127.468 235.436 127.512 235.436 127.6V135.184C235.436 135.48 235.616 135.644 235.976 135.676L236.612 135.7C236.708 135.7 236.756 135.756 236.756 135.868ZM240.367 136.132C239.679 136.132 239.115 135.94 238.675 135.556C238.235 135.172 238.015 134.712 238.015 134.176C238.015 133.632 238.159 133.18 238.447 132.82C238.735 132.452 239.143 132.084 239.671 131.716C239.239 131.396 238.903 131.064 238.663 130.72C238.423 130.376 238.303 129.94 238.303 129.412C238.303 128.884 238.523 128.428 238.963 128.044C239.403 127.66 239.931 127.468 240.547 127.468C241.163 127.468 241.671 127.64 242.071 127.984C242.471 128.328 242.671 128.74 242.671 129.22C242.671 129.692 242.543 130.096 242.287 130.432C242.039 130.76 241.683 131.084 241.219 131.404C241.771 131.772 242.203 132.148 242.515 132.532C242.827 132.916 242.983 133.412 242.983 134.02C242.983 134.62 242.719 135.124 242.191 135.532C241.671 135.932 241.063 136.132 240.367 136.132ZM241.387 132.964C241.171 132.772 240.999 132.632 240.871 132.544C240.751 132.456 240.527 132.304 240.199 132.088C239.711 132.416 239.335 132.736 239.071 133.048C238.815 133.352 238.687 133.712 238.687 134.128C238.687 134.536 238.851 134.884 239.179 135.172C239.507 135.46 239.895 135.604 240.343 135.604C240.791 135.604 241.171 135.464 241.483 135.184C241.803 134.904 241.963 134.552 241.963 134.128C241.963 133.696 241.771 133.308 241.387 132.964ZM240.619 127.996C240.235 127.996 239.915 128.116 239.659 128.356C239.403 128.588 239.275 128.884 239.275 129.244C239.275 129.596 239.395 129.908 239.635 130.18C239.875 130.444 240.223 130.728 240.679 131.032C241.103 130.736 241.427 130.452 241.651 130.18C241.883 129.908 241.999 129.596 241.999 129.244C241.999 128.892 241.863 128.596 241.591 128.356C241.327 128.116 241.003 127.996 240.619 127.996Z" fill="black"/>
<path d="M237.9 93.868C237.9 93.916 237.88 93.96 237.84 94C237.808 94.032 237.772 94.048 237.732 94.048L236.076 94L234.324 94.048C234.204 94.048 234.144 93.992 234.144 93.88C234.144 93.76 234.196 93.7 234.3 93.7L234.936 93.676C235.096 93.66 235.24 93.612 235.368 93.532C235.496 93.452 235.56 93.336 235.56 93.184V86.524C235.56 86.212 235.396 86.056 235.068 86.056C235.052 86.056 235.036 86.056 235.02 86.056L234.228 86.092C234.14 86.092 234.096 86.04 234.096 85.936C234.096 85.832 234.152 85.772 234.264 85.756L236.4 85.468C236.52 85.468 236.58 85.512 236.58 85.6V93.184C236.58 93.48 236.76 93.644 237.12 93.676L237.756 93.7C237.852 93.7 237.9 93.756 237.9 93.868ZM242.904 93.868C242.904 93.916 242.884 93.96 242.844 94C242.812 94.032 242.776 94.048 242.736 94.048L241.08 94L239.328 94.048C239.208 94.048 239.148 93.992 239.148 93.88C239.148 93.76 239.2 93.7 239.304 93.7L239.94 93.676C240.1 93.66 240.244 93.612 240.372 93.532C240.5 93.452 240.564 93.336 240.564 93.184V86.524C240.564 86.212 240.4 86.056 240.072 86.056C240.056 86.056 240.04 86.056 240.024 86.056L239.232 86.092C239.144 86.092 239.1 86.04 239.1 85.936C239.1 85.832 239.156 85.772 239.268 85.756L241.404 85.468C241.524 85.468 241.584 85.512 241.584 85.6V93.184C241.584 93.48 241.764 93.644 242.124 93.676L242.76 93.7C242.856 93.7 242.904 93.756 242.904 93.868Z" fill="black"/>
<path d="M237.176 178H232.688C232.592 178 232.544 177.956 232.544 177.868V177.76C232.544 177.688 232.564 177.62 232.604 177.556C232.964 176.996 233.404 176.356 233.924 175.636C234.444 174.908 234.836 174.356 235.1 173.98C235.364 173.596 235.6 173.176 235.808 172.72C236.016 172.256 236.12 171.812 236.12 171.388C236.12 170.956 235.996 170.608 235.748 170.344C235.508 170.072 235.176 169.936 234.752 169.936C234.336 169.936 234.008 170.068 233.768 170.332C233.536 170.596 233.368 170.9 233.264 171.244C233.224 171.388 233.14 171.46 233.012 171.46C232.956 171.46 232.908 171.44 232.868 171.4C232.828 171.352 232.808 171.3 232.808 171.244V170.296C232.808 170.12 233.016 169.94 233.432 169.756C233.848 169.564 234.32 169.468 234.848 169.468C235.584 169.468 236.164 169.66 236.588 170.044C237.02 170.428 237.236 170.924 237.236 171.532C237.236 171.916 237.14 172.312 236.948 172.72C236.756 173.12 236.532 173.476 236.276 173.788C236.028 174.1 235.636 174.58 235.1 175.228C234.564 175.868 234.1 176.452 233.708 176.98H236.672C236.944 176.98 237.112 176.92 237.176 176.8C237.248 176.672 237.324 176.608 237.404 176.608C237.524 176.608 237.576 176.684 237.56 176.836L237.5 177.616C237.492 177.736 237.456 177.832 237.392 177.904C237.328 177.968 237.256 178 237.176 178ZM242.775 170.62H240.087L239.859 172.492C240.835 172.636 241.619 172.944 242.211 173.416C242.803 173.888 243.099 174.496 243.099 175.24C243.099 175.728 242.971 176.172 242.715 176.572C242.467 176.964 242.143 177.28 241.743 177.52C240.935 178 240.087 178.24 239.199 178.24C238.991 178.24 238.887 178.156 238.887 177.988C238.887 177.844 238.991 177.76 239.199 177.736C239.967 177.648 240.631 177.404 241.191 177.004C241.751 176.604 242.031 176.108 242.031 175.516C242.031 174.916 241.795 174.444 241.323 174.1C240.851 173.748 240.215 173.524 239.415 173.428C239.311 173.42 239.243 173.4 239.211 173.368C239.187 173.328 239.183 173.26 239.199 173.164L239.607 169.732C239.623 169.644 239.671 169.6 239.751 169.6H242.907C242.947 169.6 242.979 169.616 243.003 169.648C243.027 169.672 243.035 169.7 243.027 169.732L242.943 170.476C242.927 170.572 242.871 170.62 242.775 170.62Z" fill="black"/>
<path d="M285.324 7.828C285.324 8.58 285.04 9.152 284.472 9.544C283.912 9.936 283.228 10.132 282.42 10.132C281.62 10.132 280.96 10.036 280.44 9.844C279.928 9.652 279.672 9.44 279.672 9.208V7.804C279.672 7.636 279.736 7.552 279.864 7.552C279.968 7.552 280.04 7.628 280.08 7.78C280.288 8.396 280.556 8.856 280.884 9.16C281.22 9.456 281.688 9.604 282.288 9.604C282.888 9.604 283.372 9.468 283.74 9.196C284.116 8.924 284.304 8.548 284.304 8.068C284.304 7.54 284.008 7.096 283.416 6.736C283.152 6.576 282.86 6.42 282.54 6.268C282.22 6.116 281.9 5.96 281.58 5.8C281.26 5.632 280.968 5.452 280.704 5.26C280.112 4.828 279.816 4.284 279.816 3.628C279.816 2.964 280.068 2.44 280.572 2.056C281.084 1.664 281.684 1.468 282.372 1.468C283.06 1.468 283.644 1.556 284.124 1.732C284.604 1.9 284.844 2.088 284.844 2.296V3.508C284.844 3.668 284.784 3.748 284.664 3.748C284.552 3.748 284.468 3.668 284.412 3.508C284.244 2.996 284.024 2.616 283.752 2.368C283.48 2.12 283.072 1.996 282.528 1.996C281.992 1.996 281.568 2.124 281.256 2.38C280.944 2.636 280.788 2.956 280.788 3.34C280.788 3.716 280.944 4.044 281.256 4.324C281.568 4.596 281.944 4.84 282.384 5.056C282.832 5.264 283.276 5.484 283.716 5.716C284.164 5.94 284.544 6.232 284.856 6.592C285.168 6.952 285.324 7.364 285.324 7.828Z" fill="black"/>
<path d="M283.664 44.62H280.976L280.748 46.492C281.724 46.636 282.508 46.944 283.1 47.416C283.692 47.888 283.988 48.496 283.988 49.24C283.988 49.728 283.86 50.172 283.604 50.572C283.356 50.964 283.032 51.28 282.632 51.52C281.824 52 280.976 52.24 280.088 52.24C279.88 52.24 279.776 52.156 279.776 51.988C279.776 51.844 279.88 51.76 280.088 51.736C280.856 51.648 281.52 51.404 282.08 51.004C282.64 50.604 282.92 50.108 282.92 49.516C282.92 48.916 282.684 48.444 282.212 48.1C281.74 47.748 281.104 47.524 280.304 47.428C280.2 47.42 280.132 47.4 280.1 47.368C280.076 47.328 280.072 47.26 280.088 47.164L280.496 43.732C280.512 43.644 280.56 43.6 280.64 43.6H283.796C283.836 43.6 283.868 43.616 283.892 43.648C283.916 43.672 283.924 43.7 283.916 43.732L283.832 44.476C283.816 44.572 283.76 44.62 283.664 44.62Z" fill="black"/>
<path d="M280.668 135.868C280.668 135.916 280.648 135.96 280.608 136C280.576 136.032 280.54 136.048 280.5 136.048L278.844 136L277.092 136.048C276.972 136.048 276.912 135.992 276.912 135.88C276.912 135.76 276.964 135.7 277.068 135.7L277.704 135.676C277.864 135.66 278.008 135.612 278.136 135.532C278.264 135.452 278.328 135.336 278.328 135.184V128.524C278.328 128.212 278.164 128.056 277.836 128.056C277.82 128.056 277.804 128.056 277.788 128.056L276.996 128.092C276.908 128.092 276.864 128.04 276.864 127.936C276.864 127.832 276.92 127.772 277.032 127.756L279.168 127.468C279.288 127.468 279.348 127.512 279.348 127.6V135.184C279.348 135.48 279.528 135.644 279.888 135.676L280.524 135.7C280.62 135.7 280.668 135.756 280.668 135.868ZM281.748 130.048C281.756 129.352 282.008 128.748 282.504 128.236C283.008 127.724 283.664 127.468 284.472 127.468C285.288 127.468 285.936 127.74 286.416 128.284C286.896 128.82 287.136 129.588 287.136 130.588C287.136 131.58 286.784 132.616 286.08 133.696C285.376 134.768 284.432 135.58 283.248 136.132C283.24 136.14 283.204 136.144 283.14 136.144C283.076 136.144 283.008 136.124 282.936 136.084C282.872 136.052 282.84 135.988 282.84 135.892C282.84 135.788 282.9 135.7 283.02 135.628C284.524 134.724 285.48 133.508 285.888 131.98C285.464 132.364 284.932 132.556 284.292 132.556C283.476 132.556 282.848 132.312 282.408 131.824C281.968 131.336 281.748 130.744 281.748 130.048ZM285.612 128.548C285.324 128.164 284.936 127.972 284.448 127.972C283.96 127.972 283.568 128.164 283.272 128.548C282.984 128.924 282.84 129.42 282.84 130.036C282.84 130.644 282.988 131.12 283.284 131.464C283.58 131.8 283.968 131.968 284.448 131.968C284.928 131.968 285.316 131.8 285.612 131.464C285.908 131.12 286.056 130.644 286.056 130.036C286.056 129.42 285.908 128.924 285.612 128.548Z" fill="white"/>
<path d="M280.791 93.868C280.791 93.916 280.771 93.96 280.731 94C280.699 94.032 280.663 94.048 280.623 94.048L278.967 94L277.215 94.048C277.095 94.048 277.035 93.992 277.035 93.88C277.035 93.76 277.087 93.7 277.191 93.7L277.827 93.676C277.987 93.66 278.131 93.612 278.259 93.532C278.387 93.452 278.451 93.336 278.451 93.184V86.524C278.451 86.212 278.287 86.056 277.959 86.056C277.943 86.056 277.927 86.056 277.911 86.056L277.119 86.092C277.031 86.092 276.987 86.04 276.987 85.936C276.987 85.832 277.043 85.772 277.155 85.756L279.291 85.468C279.411 85.468 279.471 85.512 279.471 85.6V93.184C279.471 93.48 279.651 93.644 280.011 93.676L280.647 93.7C280.743 93.7 280.791 93.756 280.791 93.868ZM286.503 94H282.015C281.919 94 281.871 93.956 281.871 93.868V93.76C281.871 93.688 281.891 93.62 281.931 93.556C282.291 92.996 282.731 92.356 283.251 91.636C283.771 90.908 284.163 90.356 284.427 89.98C284.691 89.596 284.927 89.176 285.135 88.72C285.343 88.256 285.447 87.812 285.447 87.388C285.447 86.956 285.323 86.608 285.075 86.344C284.835 86.072 284.503 85.936 284.079 85.936C283.663 85.936 283.335 86.068 283.095 86.332C282.863 86.596 282.695 86.9 282.591 87.244C282.551 87.388 282.467 87.46 282.339 87.46C282.283 87.46 282.235 87.44 282.195 87.4C282.155 87.352 282.135 87.3 282.135 87.244V86.296C282.135 86.12 282.343 85.94 282.759 85.756C283.175 85.564 283.647 85.468 284.175 85.468C284.911 85.468 285.491 85.66 285.915 86.044C286.347 86.428 286.563 86.924 286.563 87.532C286.563 87.916 286.467 88.312 286.275 88.72C286.083 89.12 285.859 89.476 285.603 89.788C285.355 90.1 284.963 90.58 284.427 91.228C283.891 91.868 283.427 92.452 283.035 92.98H285.999C286.271 92.98 286.439 92.92 286.503 92.8C286.575 92.672 286.651 92.608 286.731 92.608C286.851 92.608 286.903 92.684 286.887 92.836L286.827 93.616C286.819 93.736 286.783 93.832 286.719 93.904C286.655 93.968 286.583 94 286.503 94Z" fill="black"/>
<path d="M281.149 178H276.661C276.565 178 276.517 177.956 276.517 177.868V177.76C276.517 177.688 276.537 177.62 276.577 177.556C276.937 176.996 277.377 176.356 277.897 175.636C278.417 174.908 278.809 174.356 279.073 173.98C279.337 173.596 279.573 173.176 279.781 172.72C279.989 172.256 280.093 171.812 280.093 171.388C280.093 170.956 279.969 170.608 279.721 170.344C279.481 170.072 279.149 169.936 278.725 169.936C278.309 169.936 277.981 170.068 277.741 170.332C277.509 170.596 277.341 170.9 277.237 171.244C277.197 171.388 277.113 171.46 276.985 171.46C276.929 171.46 276.881 171.44 276.841 171.4C276.801 171.352 276.781 171.3 276.781 171.244V170.296C276.781 170.12 276.989 169.94 277.405 169.756C277.821 169.564 278.293 169.468 278.821 169.468C279.557 169.468 280.137 169.66 280.561 170.044C280.993 170.428 281.209 170.924 281.209 171.532C281.209 171.916 281.113 172.312 280.921 172.72C280.729 173.12 280.505 173.476 280.249 173.788C280.001 174.1 279.609 174.58 279.073 175.228C278.537 175.868 278.073 176.452 277.681 176.98H280.645C280.917 176.98 281.085 176.92 281.149 176.8C281.221 176.672 281.297 176.608 281.377 176.608C281.497 176.608 281.549 176.684 281.533 176.836L281.473 177.616C281.465 177.736 281.429 177.832 281.365 177.904C281.301 177.968 281.229 178 281.149 178ZM288.356 175.552C288.356 176.248 288.104 176.852 287.6 177.364C287.104 177.876 286.448 178.132 285.632 178.132C284.824 178.132 284.18 177.864 283.7 177.328C283.22 176.784 282.98 176.016 282.98 175.024C282.98 174.024 283.332 172.988 284.036 171.916C284.74 170.836 285.684 170.02 286.868 169.468C286.876 169.46 286.912 169.456 286.976 169.456C287.04 169.456 287.104 169.476 287.168 169.516C287.24 169.548 287.276 169.616 287.276 169.72C287.276 169.816 287.216 169.9 287.096 169.972C285.592 170.876 284.636 172.092 284.228 173.62C284.652 173.236 285.184 173.044 285.824 173.044C286.64 173.044 287.268 173.288 287.708 173.776C288.148 174.264 288.364 174.856 288.356 175.552ZM284.492 177.064C284.788 177.44 285.18 177.628 285.668 177.628C286.156 177.628 286.544 177.44 286.832 177.064C287.128 176.68 287.276 176.184 287.276 175.576C287.276 174.96 287.128 174.484 286.832 174.148C286.536 173.804 286.148 173.632 285.668 173.632C285.188 173.632 284.8 173.804 284.504 174.148C284.208 174.484 284.06 174.96 284.06 175.576C284.06 176.184 284.204 176.68 284.492 177.064Z" fill="black"/>
</svg>
